HIERARCHY
ROOT Hips
{
	OFFSET 0.00000 0.00000 0.00000
	CHANNELS 6 Xposition Yposition Zposition Zrotation Yrotation Xrotation 
	JOINT LHipJoint
	{
		OFFSET 0 0 0
		CHANNELS 3 Zrotation Yrotation Xrotation
		JOINT LeftHip
		{
			OFFSET 1.36337 -1.57426 1.11036
			CHANNELS 3 Zrotation Yrotation Xrotation
			JOINT LeftKnee
			{
				OFFSET 2.38468 -6.55187 0.00000
				CHANNELS 3 Zrotation Yrotation Xrotation
				JOINT LeftAnkle
				{
					OFFSET 2.37166 -6.51609 0.00000
					CHANNELS 3 Zrotation Yrotation Xrotation
					JOINT LeftToe
					{
						OFFSET 0.29078 -0.79891 2.01393
						CHANNELS 3 Zrotation Yrotation Xrotation
						End Site
						{
							OFFSET 0.00000 -0.00000 1.07924
						}
					}
				}
			}
		}
	}
	JOINT RHipJoint
	{
		OFFSET 0 0 0
		CHANNELS 3 Zrotation Yrotation Xrotation
		JOINT RightHip
		{
			OFFSET -1.36349 -1.57426 1.11036
			CHANNELS 3 Zrotation Yrotation Xrotation
			JOINT RightKnee
			{
				OFFSET -2.29562 -6.30717 0.00000
				CHANNELS 3 Zrotation Yrotation Xrotation
				JOINT RightAnkle
				{
					OFFSET -2.40985 -6.62100 0.00000
					CHANNELS 3 Zrotation Yrotation Xrotation
					JOINT RightToe
					{
						OFFSET -0.23197 -0.63733 1.92232
						CHANNELS 3 Zrotation Yrotation Xrotation
						End Site
						{
							OFFSET -0.00000 -0.00000 1.01562
						}
					}
				}
			}
		}
	}
	JOINT lowerback
	{
		OFFSET 0 0 0
		CHANNELS 3 Zrotation Yrotation Xrotation
		JOINT Chest
		{
			OFFSET -0.08565 2.03602 -0.24562
			CHANNELS 3 Zrotation Yrotation Xrotation
			JOINT Chest2
			{
				OFFSET -0.00036 2.05693 0.00216
				CHANNELS 3 Zrotation Yrotation Xrotation
				JOINT lowerneck
				{
					OFFSET 0 0 0
					CHANNELS 3 Zrotation Yrotation Xrotation
					JOINT Neck
					{
						OFFSET -0.03664 1.69515 0.31789
						CHANNELS 3 Zrotation Yrotation Xrotation
						JOINT Head
						{
							OFFSET 0.00932 1.70181 -0.46013
							CHANNELS 3 Zrotation Yrotation Xrotation
							End Site
							{
								OFFSET 0.01243 1.77620 -0.19377
							}
						}
					}
				}
				JOINT LeftCollar
				{
					OFFSET 0 0 0
					CHANNELS 3 Zrotation Yrotation Xrotation
					JOINT LeftShoulder
					{
						OFFSET 3.74344 0.81315 -0.36647
CHANNELS 3 Zrotation Xrotation Yrotation
						JOINT LeftElbow
						{
OFFSET 0 -4.971850 -0.000000
CHANNELS 3 Zrotation Xrotation Yrotation
							JOINT LeftWrist
							{
OFFSET 0 -3.358110 0.000000
CHANNELS 3 Zrotation Xrotation Yrotation
								JOINT lhand
								{
									OFFSET 0 0 0
CHANNELS 3 Zrotation Xrotation Yrotation
									JOINT LFingers
									{
OFFSET 0 -0.622780 0.000000
CHANNELS 3 Zrotation Xrotation Yrotation
										End Site
										{
OFFSET 0 -0.502100 0.000000
										}
									}
								}
								JOINT LThumb
								{
OFFSET 0 0.000000 0.000000
CHANNELS 3 Zrotation Xrotation Yrotation
									End Site
									{
OFFSET 0 -0.509760 0.509760
									}
								}
							}
						}
					}
				}
				JOINT RightCollar
				{
					OFFSET 0 0 0
					CHANNELS 3 Zrotation Yrotation Xrotation
					JOINT RightShoulder
					{
						OFFSET -3.75385 0.50666 -0.06525
CHANNELS 3 Zrotation Xrotation Yrotation
						JOINT RightElbow
						{
OFFSET 0 -4.964930 -0.000000
CHANNELS 3 Zrotation Xrotation Yrotation
							JOINT RightWrist
							{
OFFSET 0 -3.349290 0.000000
CHANNELS 3 Zrotation Xrotation Yrotation
								JOINT rhand
								{
									OFFSET 0 0 0
CHANNELS 3 Zrotation Xrotation Yrotation
									JOINT RFingers
									{
OFFSET 0 -0.638040 0.000000
CHANNELS 3 Zrotation Xrotation Yrotation
										End Site
										{
OFFSET 0 -0.514410 0.000000
										}
									}
								}
								JOINT RThumb
								{
OFFSET 0 0.000000 0.000000
CHANNELS 3 Zrotation Xrotation Yrotation
									End Site
									{
OFFSET 0 -0.522260 0.522260
									}
								}
							}
						}
					}
				}
			}
		}
	}
}
MOTION
Frames: 12
Frame Time: 0.008333333333333333
-28.112300 16.633800 0.354900 -156.233000 79.228700 -139.904000 0.000000 0.000000 0.000000 -13.401400 -6.948200 -23.444800 2.716200 10.220700 29.694600 1.786100 6.866600 -28.501500 0.436400 -4.239200 -11.750700 0.000000 0.000000 0.000000 16.317800 -9.765700 -20.596000 -1.027500 -6.448000 18.090100 0.220100 -17.632900 -22.934900 -0.000600 -0.159200 0.437400 3.707500 3.399400 -19.359300 0.436500 3.735000 -0.618600 -0.571900 1.980700 10.403100 15.955600 16.201500 -5.751500 -10.887300 24.274000 22.428000 -2.911200 11.786200 11.553900 0.000000 -0.000000 0.000000 6.069500 -12.343500 -43.853700 15.976100 -25.488300 3.635700 8.258400 -18.401900 5.073800 0.000000 0.000000 0.000000 -7.125000 0.000000 0.000000 -13.697200 24.839900 -6.864700 0.000000 -0.000000 0.000000 -1.259600 -0.716700 8.985500 -19.616800 -30.177800 -5.337400 -3.643400 -5.178600 32.516700 0.000000 0.000000 0.000000 7.125000 0.000000 -0.000000 32.430900 59.491400 -12.260900
-28.081252 16.637519 0.351065 -156.023481 79.492690 -139.156593 0.000000 0.000000 0.000000 -13.445699 -7.255804 -23.775943 2.722592 10.231881 29.730864 1.719157 7.214835 -28.262203 0.315506 -3.607361 -9.974875 0.000000 0.000000 0.000000 15.573341 -6.870982 -18.822401 -0.726729 -5.439585 15.168522 0.190383 -18.866817 -25.087612 -0.043863 -1.331019 3.660301 3.586071 3.403493 -20.029865 0.419480 3.746312 -0.682981 -0.484526 1.981867 10.698813 15.685587 16.265248 -6.184309 -10.651051 24.299803 22.644646 -2.750875 11.769308 11.648752 0.000000 0.000000 0.000000 6.263296 -12.421837 -43.876836 15.765318 -25.201352 3.545546 10.718082 -17.739128 7.001557 0.000000 0.000000 0.000000 -7.125000 0.000000 0.000000 -11.740397 22.887951 -6.375645 0.000000 0.000000 0.000000 -1.295378 -0.736679 9.308456 -19.725148 -30.309750 -5.392002 -3.232931 -5.517691 32.295359 0.000000 0.000000 0.000000 7.125000 0.000000 0.000000 32.624654 59.212691 -12.122628
-28.050298 16.635663 0.357299 -155.981317 79.754535 -138.564992 0.000000 0.000000 0.000000 -13.487832 -7.397221 -24.254198 2.742983 10.266865 29.845255 1.666029 7.390954 -28.009688 0.241802 -3.160409 -8.726064 0.000000 0.000000 0.000000 14.976227 -4.204643 -17.528257 -0.523322 -4.623313 12.839403 0.247976 -20.413100 -26.945857 -0.086227 -1.891446 5.205903 3.478032 3.410166 -20.726913 0.360701 3.761756 -0.719737 -0.446887 1.986319 11.043633 15.457928 16.378616 -6.542665 -10.501263 24.402736 22.728101 -2.617868 11.786792 11.709005 0.000000 0.000000 0.000000 6.522079 -12.588088 -43.963085 15.576008 -24.942379 3.465222 12.896046 -16.821056 7.676342 0.000000 0.000000 0.000000 -7.125000 0.000000 0.000000 -10.117461 22.147239 -5.649714 0.000000 0.000000 0.000000 -1.327448 -0.797521 9.805868 -19.821289 -30.426427 -5.440569 -2.579472 -6.123207 31.596238 0.000000 0.000000 0.000000 7.125000 0.000000 0.000000 32.633359 58.483071 -11.543590
-28.025791 16.628185 0.372873 -157.036553 80.073946 -139.070469 0.000000 0.000000 0.000000 -13.698694 -7.596912 -24.705093 2.751808 10.281976 29.894749 1.604659 7.493944 -27.651458 0.170423 -2.646253 -7.296237 0.000000 0.000000 0.000000 14.321499 -1.754686 -16.508238 -0.375093 -3.926279 10.870285 0.437452 -22.161208 -28.139295 -0.117776 -2.206507 6.076896 3.266079 3.457793 -21.307852 0.147938 3.885015 -0.868981 -0.497957 2.040447 11.204540 15.550794 16.354920 -6.508101 -10.526528 24.355476 22.675009 -2.651414 11.771840 11.691915 0.000000 0.000000 0.000000 6.873449 -12.501738 -44.399598 15.456090 -24.777563 3.414852 16.086879 -15.079381 6.794216 0.000000 0.000000 0.000000 -7.125000 0.000000 0.000000 -7.830781 22.930058 -4.211348 0.000000 0.000000 0.000000 -1.234789 -0.647446 10.134353 -19.871870 -30.487745 -5.466222 0.614106 -7.784613 27.349420 0.000000 0.000000 0.000000 7.125000 0.000000 0.000000 32.285484 54.269718 -7.968968
-28.002620 16.620972 0.393685 -158.906564 80.477065 -140.465826 0.000000 0.000000 0.000000 -14.073651 -7.828379 -25.024655 2.751231 10.280982 29.891561 1.499952 7.482218 -26.903866 0.047416 -1.255109 -3.453505 0.000000 0.000000 0.000000 13.627556 0.439137 -15.769451 -0.294438 -3.486714 9.637180 0.671234 -23.777167 -28.970389 -0.188715 -2.787346 7.687863 2.947103 3.492360 -21.773536 -0.098339 4.030876 -1.061219 -0.525828 2.100909 11.247295 15.717499 16.262502 -6.178334 -10.685726 24.261910 22.478352 -2.778514 11.751413 11.587967 0.000000 0.000000 0.000000 7.153751 -12.127974 -45.160580 15.134749 -24.333030 3.281502 20.952132 -13.649570 6.910432 0.000000 0.000000 0.000000 -7.125000 0.000000 0.000000 -4.270017 22.582942 -2.299453 0.000000 0.000000 0.000000 -1.173091 -0.379414 10.301515 -19.873433 -30.489571 -5.466989 -0.138928 -7.164622 29.809986 0.000000 0.000000 0.000000 7.125000 0.000000 0.000000 33.520452 56.471753 -10.250712
-27.977182 16.616217 0.423172 -161.810846 80.950017 -143.021569 0.000000 0.000000 0.000000 -14.641489 -7.950691 -25.185736 2.744016 10.268765 29.851399 1.552216 7.342517 -27.187243 0.007900 -0.572241 -1.572414 0.000000 0.000000 0.000000 13.014490 1.842804 -15.221254 -0.253152 -3.237081 8.939428 0.932719 -25.299805 -29.615990 -0.318389 -3.624972 10.024156 2.510291 3.421998 -22.155899 -0.350534 4.070899 -1.189742 -0.529130 2.105565 11.303163 15.671663 16.285909 -5.922485 -10.696020 24.327802 22.354726 -2.789441 11.794628 11.497482 0.000000 0.000000 0.000000 7.263838 -11.951018 -44.426842 14.791072 -23.854204 3.141030 22.279136 -13.711017 7.206484 0.000000 0.000000 0.000000 -7.125000 0.000000 0.000000 -3.296694 22.203124 -1.809361 0.000000 0.000000 0.000000 -1.172797 -0.154757 10.677173 -19.786594 -30.384288 -5.423015 -1.952952 -5.871111 33.084755 0.000000 0.000000 0.000000 7.125000 0.000000 0.000000 34.640923 59.572672 -13.291068
-27.951926 16.612226 0.458817 -164.990578 81.090185 -145.996319 0.000000 0.000000 0.000000 -15.031016 -8.234860 -25.154907 2.734836 10.252866 29.799575 1.578994 7.388353 -27.405095 0.006679 -0.525459 -1.443934 0.000000 0.000000 0.000000 12.600007 2.805444 -14.601729 -0.238440 -3.142310 8.675240 0.903321 -26.298288 -31.540371 -0.442658 -4.267742 11.831405 2.221683 3.286704 -22.449334 -0.543631 3.981448 -1.183194 -0.593053 2.054270 11.464101 15.495406 16.378709 -6.069354 -10.641873 24.459474 22.402340 -2.709058 11.835915 11.529825 0.000000 0.000000 0.000000 7.216923 -12.046394 -42.969263 14.281764 -23.135355 2.938427 22.673462 -12.968031 7.080096 0.000000 0.000000 0.000000 -7.125000 0.000000 0.000000 -3.006477 22.316996 -1.641836 0.000000 0.000000 0.000000 -1.221072 -0.363316 10.950375 -19.398795 -29.910827 -5.228456 -2.280302 -5.414547 32.703165 0.000000 0.000000 0.000000 7.125000 0.000000 0.000000 33.945797 59.334404 -12.787301
-27.931268 16.607131 0.497497 -166.901092 81.173750 -147.829599 0.000000 0.000000 0.000000 -15.180510 -8.543714 -25.013071 2.729195 10.243195 29.767890 1.606247 7.520984 -27.680288 0.004216 -0.419696 -1.153136 0.000000 0.000000 0.000000 12.236871 3.834408 -14.001656 -0.230653 -3.091322 8.533125 0.760096 -26.782152 -33.272761 -0.500804 -4.536319 12.590725 2.197917 3.255639 -22.704716 -0.703986 3.956841 -1.093531 -0.750354 2.045139 11.717490 15.493063 16.411873 -6.169632 -10.732464 24.516281 22.392566 -2.717976 11.845863 11.566878 0.000000 0.000000 0.000000 7.005040 -12.272162 -41.163595 13.615861 -22.181482 2.682265 22.959544 -11.828532 7.075367 0.000000 0.000000 0.000000 -7.125000 0.000000 0.000000 -2.796910 22.305715 -1.527875 0.000000 0.000000 0.000000 -1.238077 -0.677119 10.974510 -18.945437 -29.350379 -5.004310 -2.658584 -4.898297 32.540623 0.000000 0.000000 0.000000 7.125000 0.000000 0.000000 33.419817 59.286404 -12.520697
-27.917284 16.610274 0.540307 -166.870040 81.375102 -147.567421 0.000000 0.000000 0.000000 -15.070335 -8.679301 -25.143625 2.714874 10.218504 29.687235 1.603448 7.830943 -27.862126 0.005732 -0.481457 -1.322942 0.000000 0.000000 0.000000 11.965908 5.248488 -13.828975 -0.238253 -3.140795 8.670872 0.694651 -27.279563 -34.460254 -0.541390 -4.713678 13.093801 2.406465 3.352852 -22.957665 -0.795344 4.039915 -1.146337 -0.932029 2.098774 11.822094 15.544649 16.408266 -6.070891 -10.862821 24.552972 22.343509 -2.769861 11.861672 11.562257 0.000000 0.000000 0.000000 6.569784 -12.385011 -38.891654 12.870645 -21.095448 2.407899 23.408508 -10.544420 7.243460 0.000000 0.000000 0.000000 -7.125000 0.000000 0.000000 -2.472160 22.096737 -1.361175 0.000000 0.000000 0.000000 -1.296158 -0.726482 10.963067 -18.569832 -28.880178 -4.821549 -2.790125 -4.562319 32.724286 0.000000 0.000000 0.000000 7.125000 0.000000 0.000000 33.468196 59.468541 -12.690350
-27.900214 16.622689 0.587611 -165.546225 81.581197 -145.898698 0.000000 0.000000 0.000000 -14.744317 -8.846048 -25.348360 2.687233 10.170544 29.530887 1.586882 8.339925 -28.084738 0.009034 -0.612329 -1.682650 0.000000 0.000000 0.000000 11.842836 6.880475 -13.989262 -0.265138 -3.311676 9.147699 0.690299 -27.920524 -35.492751 -0.502465 -4.542053 12.607117 2.714163 3.547480 -23.289298 -0.844213 4.223977 -1.321274 -1.088028 2.204828 11.839110 15.541385 16.381281 -6.063922 -10.727208 24.519577 22.518329 -2.727900 11.859022 11.601511 0.000000 0.000000 0.000000 5.972643 -12.348127 -36.021210 11.991897 -19.790525 2.100953 23.572713 -8.960678 8.014887 0.000000 0.000000 0.000000 -7.125000 0.000000 0.000000 -2.371208 21.249224 -1.351815 0.000000 0.000000 0.000000 -1.338190 -0.601032 10.759303 -18.165109 -28.367564 -4.627646 -2.818372 -4.234152 32.771228 0.000000 0.000000 0.000000 7.125000 0.000000 0.000000 33.485710 59.513948 -12.734764
-27.882145 16.634042 0.641556 -165.058038 81.782142 -145.260367 0.000000 0.000000 0.000000 -14.551128 -8.959582 -25.290727 2.657654 10.119009 29.363118 1.581335 8.724958 -28.307498 0.011754 -0.699439 -1.922252 0.000000 0.000000 0.000000 11.625016 8.409376 -14.007856 -0.295127 -3.493092 9.654885 0.815159 -28.867481 -36.285030 -0.416555 -4.141688 11.475840 2.773879 3.683280 -23.342690 -0.875803 4.398747 -1.499722 -1.101166 2.292345 11.679891 15.662040 16.300764 -5.985813 -10.661064 24.425840 22.695897 -2.742413 11.837518 11.647594 0.000000 0.000000 0.000000 5.205212 -12.124284 -32.753681 11.190361 -18.578999 1.836410 23.414422 -6.979147 8.624267 0.000000 0.000000 0.000000 -7.125000 0.000000 0.000000 -2.502466 20.599100 -1.463524 0.000000 0.000000 0.000000 -1.397009 -0.348561 10.389659 -17.750712 -27.836635 -4.432296 -2.800335 -3.889977 32.250457 0.000000 0.000000 0.000000 7.125000 0.000000 0.000000 33.006481 59.077465 -12.175830
-27.868859 16.629961 0.706353 -165.808918 81.936534 -145.775003 0.000000 0.000000 0.000000 -14.471993 -8.875428 -25.496534 2.637472 10.083656 29.248182 1.538099 8.865794 -28.108176 0.018047 -0.867660 -2.384708 0.000000 0.000000 0.000000 11.696764 8.134837 -14.574205 -0.320292 -3.637794 10.059783 0.515474 -27.857031 -36.364737 -0.539975 -4.700121 13.056757 2.555954 3.691078 -23.500370 -0.886569 4.469252 -1.586472 -0.959927 2.315325 11.654324 15.778865 16.309906 -6.032715 -10.647465 24.425317 22.771903 -2.744920 11.842763 11.700202 0.000000 0.000000 0.000000 4.409549 -11.791068 -29.559495 10.698380 -17.824314 1.682571 23.433920 -5.245846 8.909436 0.000000 0.000000 0.000000 -7.125000 0.000000 0.000000 -2.497184 20.288523 -1.477655 0.000000 0.000000 0.000000 -1.525660 -0.274917 10.009156 -17.404472 -27.387760 -4.271782 -3.129853 -3.332906 32.156123 0.000000 0.000000 0.000000 7.125000 0.000000 0.000000 32.595356 59.073107 -11.999009
